<?xml version="1.0" encoding="UTF-8"?>
<svg id="Layer_1" xmlns="http://www.w3.org/2000/svg" version="1.1" viewBox="0 0 64 64">
  <!-- Generator: Adobe Illustrator 29.6.0, SVG Export Plug-In . SVG Version: 2.1.1 Build 207)  -->
  <defs>
    <style>
      .st0 {
        fill: #3e1b0d;
      }

      .st0, .st1, .st2 {
        display: none;
      }

      .st3 {
        fill: #d4d639;
      }

      .st4, .st5 {
        fill: #fff;
      }

      .st6 {
        fill: #808285;
      }

      .st7 {
        fill: #231f20;
        stroke: #e6e7e8;
        stroke-width: 2px;
      }

      .st7, .st5 {
        stroke-miterlimit: 10;
      }

      .st1 {
        fill: #dda56b;
      }

      .st5 {
        stroke: #fff;
      }

      .st8 {
        fill: #e6e7e8;
      }

      .st2 {
        fill: #25add1;
      }
    </style>
  </defs>
  <polygon class="st7" points="50.4 19.3 50.4 11.4 48.4 11.4 48.4 7.8 46.7 7.8 46.7 6.4 44.4 6.4 44.4 4.5 40.3 4.5 40.3 2.8 24.7 2.8 24.7 4.6 20.5 4.6 20.5 6.4 18.2 6.4 18.2 8.3 16.6 8.3 16.6 10 12.6 10 12.6 8.3 10.9 8.3 10.9 13.5 12.8 13.5 12.8 15.7 14.9 15.7 14.9 19.5 13.1 19.5 13.1 25 10.9 34.2 32 44.3 53.9 34.2 50.4 19.3"/>
  <rect class="st6" x="24.7" y="36.3" width="15.7" height="10"/>
  <polyline class="st4" points="16.9 26.5 16.9 28.9 19 28.9 19 24.9 16.9 24.9"/>
  <polyline class="st4" points="48.4 25.8 48.4 28.2 46.3 28.2 46.3 24.2 48.4 24.2"/>
  <polygon class="st5" points="22.6 22.6 22.6 32.5 24.7 32.5 24.7 36.3 40.3 36.3 40.3 32.4 42.2 32.4 42.2 20.8 40.4 20.8 40.4 18.6 38.1 18.6 38.1 16.4 36 16.4 36 18.5 33.7 18.5 33.7 20.8 28.7 20.8 28.7 22.4 22.6 22.6"/>
  <rect class="st3" x="36.6" y="24.2" width="4.3" height="5.4"/>
  <rect class="st3" x="25" y="24.2" width="4.3" height="5.4"/>
  <rect class="st4" x="25.6" y="24.9" width="2" height="2"/>
  <rect class="st4" x="37" y="24.7" width="2" height="2"/>
  <rect class="st8" x="28.7" y="36.3" width="7.9" height="3.7"/>
  <rect class="st4" x="30.5" y="36.3" width="4.3" height="2"/>
  <rect class="st2" x="22.6" y="38.1" width="2.1" height="6.2"/>
  <rect class="st2" x="40.3" y="38.1" width="2.1" height="6.2"/>
  <rect class="st2" x="20.7" y="40.2" width="1.9" height="4.1"/>
  <rect class="st2" x="42.4" y="40.2" width="1.9" height="4.1"/>
  <rect class="st1" x="19" y="44.3" width="3.8" height="3.8"/>
  <rect class="st1" x="42.4" y="44.3" width="3.8" height="3.8"/>
  <rect class="st2" x="24.7" y="46.3" width="15.7" height="11.8"/>
  <rect class="st0" x="24.7" y="58.1" width="4.1" height="4.1"/>
  <rect class="st0" x="36.3" y="58.1" width="4.1" height="4.1"/>
</svg>